<svg width="81" height="95" fill="none" xmlns="http://www.w3.org/2000/svg"><g clip-path="url(#clip0_2858_2606)"><mask id="mask0_2858_2606" style="mask-type:luminance" maskUnits="userSpaceOnUse" x="0" y="46" width="80" height="43"><path d="M79.36 46.838H.268V88.88H79.36V46.838z" fill="#fff"/></mask><g mask="url(#mask0_2858_2606)" fill="#3F2021"><path d="M25.06 86.848c-.824 0-1.068-.759-1.068-1.825v-.888c.017-1.08.275-1.614 1.069-1.614.793 0 1.068.598 1.068 1.793v.71c0 1.065-.122 1.824-1.069 1.824zm-1.068-9.265h-2.136V88.72h2.136v-.355c.336.339.81.517 1.434.517 1.984 0 2.99-1.485 2.99-3.745v-.936c0-2.47-1.19-3.713-2.99-3.713-.487 0-1.022.097-1.434.517v-3.422zm-3.509 3.067h-2.288v4.6c0 1.115-.29 1.567-1.068 1.567s-1.008-.485-1.008-1.582V80.65h-2.288v5.036c0 2.422 1.313 3.196 2.808 3.196.946 0 1.297-.275 1.602-.79v.63h2.242V80.65zM9.437 86.09c0 2.178 1.129 2.63 3.25 2.63v-2.065c-.61 0-.962-.227-.962-1.097v-7.974H9.437v8.507-.002zm-1.144-5.07c-.351-2.421-1.785-3.599-3.876-3.599-2.395 0-4.149 1.502-4.149 4.86v1.743c0 3.325 1.755 4.858 4.15 4.858 2.227 0 3.509-1.097 3.875-3.599h-2.41c-.152.888-.564 1.372-1.464 1.372-1.069 0-1.618-.887-1.618-2.63V82.28c0-1.824.564-2.631 1.618-2.631.9 0 1.358.661 1.464 1.371h2.41zm67.694-9.547c-.946 0-1.068-.758-1.068-1.824v-.71c0-1.195.244-1.792 1.068-1.792.778 0 1.068.533 1.068 1.614v1.13c0 .937-.198 1.582-1.068 1.582zm1.068-5.923c-.38-.274-.854-.436-1.434-.436-1.77 0-2.99 1.243-2.99 3.615v1.13c0 2.163 1.037 3.647 2.99 3.647.564 0 1.053-.162 1.434-.467v.145c0 1.177-.366 1.323-1.434 1.323-.58 0-1.007-.21-1.343-.646l-1.495 1.147c.748 1.146 1.678 1.501 3.143 1.501 1.862 0 3.418-.42 3.418-3.324v-7.91h-2.289v.275zm-12.068 7.796h2.288V68.73c0-1.033.305-1.55 1.1-1.55.732 0 .976.485.976 1.566v4.6h2.288v-5.069c0-2.453-1.312-3.163-2.807-3.163a2.06 2.06 0 0 0-1.618.775v-.613h-2.227v8.07zm-3.814-8.878h2.441v-2.26h-2.441v2.26zm.076 8.877h2.288v-8.07h-2.288v8.07zm-7.796 0h2.288V68.73c0-1.033.305-1.55 1.098-1.55.732 0 .977.485.977 1.566v4.6h2.289v-5.069c0-2.453-1.312-3.163-2.808-3.163-.809 0-1.373.451-1.617.775v-.613h-2.227v8.07zm-7.873 0h2.288V68.73c0-1.033.305-1.55 1.099-1.55.732 0 .976.485.976 1.566v4.6h2.288v-5.069c0-2.453-1.312-3.163-2.808-3.163-.809 0-1.373.451-1.617.775v-.613H45.58v8.07h.001zm-3.448-2.969c0 .742-.244 1.227-1.007 1.227-.58 0-.931-.258-.931-.726 0-.533.32-.742.9-.742h1.037v.242zm-4.165.565c0 1.695 1.16 2.566 2.655 2.566.839 0 1.251-.387 1.51-.823v.662h2.227v-5.149c0-2.486-1.19-3.083-3.173-3.083-1.617 0-2.502.339-3.097 1.34l1.602 1.178c.274-.42.58-.55 1.236-.55 1.068 0 1.205.308 1.205 1.098v.242h-1.358c-1.587 0-2.807.824-2.807 2.518m-2.838-5.665l-1.404 4.648-1.404-4.648h-2.517l2.884 8.07h2.136l2.823-8.07h-2.518zm-8.01 5.1c0 .742-.244 1.227-1.007 1.227-.58 0-.93-.259-.93-.726 0-.533.32-.742.9-.742h1.036v.242l.002-.001zm-4.165.565c0 1.695 1.16 2.566 2.655 2.566.84 0 1.251-.387 1.51-.823v.661h2.228v-5.148c0-2.486-1.19-3.083-3.174-3.083-1.617 0-2.502.339-3.097 1.34l1.602 1.178c.275-.42.58-.55 1.236-.55 1.069 0 1.205.307 1.205 1.098v.242h-1.358c-1.586 0-2.807.824-2.807 2.518m-.519-4.47c-.442-.905-1.13-1.356-1.998-1.356-.87 0-1.373.468-1.602.775v-.613h-2.227v8.07h2.288v-4.6c0-1.081.38-1.566 1.037-1.566.442 0 .656.34.793.581l1.708-1.29.001-.002zm-9.276 3.905c0 .742-.244 1.227-1.007 1.227-.58 0-.931-.259-.931-.726 0-.533.32-.742.9-.742h1.037v.242l.001-.001zm-4.165.565c0 1.694 1.16 2.566 2.654 2.566.839 0 1.251-.387 1.511-.823v.661h2.227v-5.148c0-2.486-1.19-3.083-3.173-3.083-1.617 0-2.502.338-3.097 1.339l1.602 1.178c.275-.419.58-.549 1.236-.549 1.068 0 1.205.307 1.205 1.097v.243h-1.358c-1.586 0-2.807.823-2.807 2.518m-.702-5.295c-.351-2.421-1.786-3.599-3.876-3.599-2.395 0-4.15 1.502-4.15 4.86v1.743c0 3.325 1.756 4.858 4.15 4.858 2.227 0 3.51-1.097 3.876-3.599h-2.41c-.153.888-.565 1.372-1.465 1.372-1.068 0-1.617-.887-1.617-2.63v-1.745c0-1.824.564-2.631 1.617-2.631.9 0 1.359.661 1.464 1.371h2.41zm68.045-9.321c-.851 0-.962-.684-.962-1.643v-.64c0-1.075.22-1.614.962-1.614.701 0 .963.48.963 1.455v.799c0 .96-.11 1.643-.963 1.643zm.963-5.336c-.371-.277-.81-.393-1.292-.393-1.594 0-2.693 1.119-2.693 3.257v1.017c0 1.949.934 3.286 2.693 3.286.537 0 .962-.175 1.292-.465v.319h2.061V47.975H77.3v3.01zm-11.008 7.022h2.06V53.85c0-.93.276-1.396.99-1.396.66 0 .879.436.879 1.41v4.144h2.061v-4.565c0-2.209-1.182-2.849-2.528-2.849-.729 0-1.237.407-1.458.697v-.552H66.29v7.269h.001zm-3.244-2.675c0 .668-.22 1.105-.907 1.105-.523 0-.838-.232-.838-.654 0-.48.289-.669.81-.669h.935v.219-.001zm-3.752.509c0 1.526 1.044 2.31 2.39 2.31.757 0 1.127-.349 1.36-.74v.596h2.007V53.37c0-2.24-1.072-2.777-2.858-2.777-1.457 0-2.254.306-2.79 1.206l1.443 1.062c.248-.378.523-.494 1.114-.494.962 0 1.085.275 1.085.989v.218h-1.224c-1.43 0-2.528.741-2.528 2.268m-8.044.315c-.934 0-1.055-.75-1.055-1.803v-.702c0-1.18.242-1.771 1.056-1.771.768 0 1.056.526 1.056 1.595v1.117c0 .926-.197 1.563-1.056 1.563m1.056-5.856c-.377-.27-.845-.43-1.418-.43-1.75 0-2.956 1.227-2.956 3.574v1.117c0 2.138 1.026 3.606 2.956 3.606.558 0 1.04-.16 1.418-.463v.143c0 1.165-.362 1.309-1.418 1.309-.573 0-.996-.208-1.327-.639l-1.478 1.133c.739 1.132 1.659 1.484 3.107 1.484 1.84 0 3.378-.415 3.378-3.287V50.03h-2.262v.271zm-12.08 7.707h2.26v-4.564c0-1.021.303-1.531 1.087-1.531.724 0 .966.479.966 1.547v4.548h2.262v-5.01c0-2.426-1.297-3.128-2.775-3.128a2.04 2.04 0 0 0-1.599.766v-.607h-2.202v7.978zm-3.922-8.776h2.413v-2.234h-2.413v2.234zm.076 8.776h2.263V50.03h-2.263v7.978zm-4.374-1.85c-.875 0-1.056-.64-1.056-1.564v-.94c0-1.182.242-1.772 1.056-1.772.814 0 1.055.59 1.055 1.771v.702c0 1.053-.12 1.803-1.055 1.803m3.318-2.712c0-2.281-1.176-3.574-2.88-3.574-.664 0-1.147.206-1.493.558v-.399H28.69v11.01h2.262v-3.192c.332.207.8.32 1.478.32 1.9 0 2.896-1.531 2.896-3.606v-1.117zM16.744 58.01h2.261v-4.564c0-1.148.408-1.53.966-1.53s.934.366.934 1.547v4.547h2.263v-4.707c0-1.037.393-1.388.936-1.388.71 0 .966.48.966 1.547v4.548h2.263V53c0-2.075-.951-3.127-2.61-3.127-.965 0-1.658.463-2.125 1.005-.468-.67-1.207-1.005-2.067-1.005a1.96 1.96 0 0 0-1.583.765v-.607h-2.202v7.978l-.002.001zm-3.56-2.936c0 .734-.242 1.213-.996 1.213-.573 0-.92-.255-.92-.718 0-.526.317-.734.89-.734h1.026v.24zm-4.118.558c0 1.675 1.147 2.537 2.625 2.537.83 0 1.236-.383 1.492-.813v.654h2.202v-5.09c0-2.457-1.176-3.047-3.137-3.047-1.599 0-2.474.335-3.062 1.324l1.584 1.165c.271-.415.573-.542 1.221-.542 1.056 0 1.191.303 1.191 1.085v.24H11.84c-1.569 0-2.775.813-2.775 2.488M8.22 50.4c-.346-2.394-1.764-3.559-3.83-3.559-2.369 0-4.103 1.484-4.103 4.803v1.723c0 3.287 1.734 4.803 4.103 4.803 2.202 0 3.469-1.086 3.83-3.558H5.837c-.151.878-.559 1.357-1.448 1.357-1.057 0-1.599-.878-1.599-2.6v-1.724c0-1.803.558-2.6 1.599-2.6.89 0 1.342.654 1.448 1.356H8.22V50.4z"/></g><mask id="mask1_2858_2606" style="mask-type:luminance" maskUnits="userSpaceOnUse" x="0" y="0" width="81" height="95"><path d="M81 .012H0V95h81V.012z" fill="#fff"/></mask><g mask="url(#mask1_2858_2606)"><path d="M79.764 37.299V21.306a2.466 2.466 0 0 0-2.467-2.461h-3.531a1.333 1.333 0 0 0-1.333-1.298h-3.987c-.724 0-1.314.579-1.333 1.298h-8.682a1.333 1.333 0 0 0-1.332-1.298H53.11c-.723 0-1.314.579-1.332 1.298h-.64c-.717 0-1.433.17-2.071.494a18.45 18.45 0 0 0-7.279 6.644 18.289 18.289 0 0 0-2.796 9.735v.467c0 .72.172 1.417.496 2.042h-2.754V13.993L60.6 8.668a.612.612 0 0 0-.004-1.196l-23.86-5.16v-1.01a.556.556 0 0 0-.007-.077h.24a.613.613 0 1 0 0-1.225h-1.696a.613.613 0 1 0 0 1.225h.24a.572.572 0 0 0-.006.077V41.88c0 .055.008.108.02.158h-.691L21.118 15.79l1.964-3.74a.614.614 0 0 0-1.088-.569l-1.567 2.986-1.56-2.986a.614.614 0 0 0-1.088.567l1.955 3.74-13.782 26.25H.613a.613.613 0 1 0 0 1.225H79.15a.613.613 0 0 0 0-1.225H62.655a3.295 3.295 0 0 0 1.125-2.478l-.002-.106h13.829c1.19 0 2.158-.966 2.158-2.154m-6.297-12.147h5.07v4.23h-5.09l.02-4.23zM57.613 8.081l-20.877 4.657V3.564L57.613 8.08v.001zm-33.558 33.92l.33-9.354L29.217 42h-5.162zm-3.63-24.89L33.433 42h-2.836L24.4 30a.614.614 0 0 0-1.16.26L22.828 42H7.357l13.067-24.89zm16.29 24.927a.6.6 0 0 0 .021-.158v-2.427h20.421a3.291 3.291 0 0 0 1.122 2.585H36.715zm22.363-4.03a2.092 2.092 0 0 1 1.04-.5l.009-.002c.051-.008.103-.015.156-.02l.027-.002a1.817 1.817 0 0 1 .317 0 2.298 2.298 0 0 1 .193.024 2.093 2.093 0 0 1 1.15.608l.02.02c.032.035.065.07.095.108.007.008.012.016.02.024.026.032.05.066.074.1l.017.024c.027.038.05.078.074.118l.02.034c.023.041.044.083.065.125.005.008.008.018.012.026.02.045.041.093.058.14v.002a2.063 2.063 0 0 1 .129.72 2.086 2.086 0 0 1-4.171 0 2.063 2.063 0 0 1 .129-.72v-.002c.017-.047.038-.095.059-.14l.011-.026c.02-.042.043-.085.065-.125l.02-.034a2.07 2.07 0 0 1 .165-.242 2.882 2.882 0 0 1 .114-.132l.02-.02a1.87 1.87 0 0 1 .11-.105l.002-.002zm4.332.036c-.007-.016-.016-.03-.024-.047a2.606 2.606 0 0 0-.1-.172l-.035-.055a3.202 3.202 0 0 0-.09-.131c-.01-.015-.02-.031-.031-.045a3.316 3.316 0 0 0-.126-.159l-.034-.038a3.472 3.472 0 0 0-.125-.136l-.02-.022a3.324 3.324 0 0 0-.162-.153l-.012-.01a3.305 3.305 0 0 0-1.453-.742l-.01-.002a3.404 3.404 0 0 0-.946-.073 3.405 3.405 0 0 0-.509.075 3.305 3.305 0 0 0-1.452.742l-.012.01c-.055.05-.11.1-.161.153l-.02.02a3.503 3.503 0 0 0-.283.335 2.63 2.63 0 0 0-.122.176l-.035.055a4.279 4.279 0 0 0-.1.172l-.025.047c-.026.05-.05.103-.075.154-.004.01-.01.02-.013.03H40.952a3.203 3.203 0 0 1-.73-2.042v-.467c0-3.224.902-6.366 2.608-9.085a17.224 17.224 0 0 1 6.795-6.203 3.36 3.36 0 0 1 1.515-.362h26.157c.684 0 1.24.555 1.24 1.237v2.62h-5.063l.004-.95a1.247 1.247 0 0 0-.365-.89 1.25 1.25 0 0 0-.89-.37h-3.992c-.688 0-1.251.56-1.255 1.247l-.004.952H48.285c-.534 0-1.05.225-1.419.618a15.75 15.75 0 0 0-2.892 4.355 1.226 1.226 0 0 0 .99 1.722v.008h21.973l-.029 5.622c-.002.336.128.651.365.89.237.238.554.37.89.37h3.993c.688 0 1.252-.56 1.254-1.246l.03-5.646h5.097V37.3c0 .512-.418.93-.931.93H63.499l-.015-.03a3.973 3.973 0 0 0-.075-.154m8.841-15.074l-.068 13.276a.028.028 0 0 1-.027.027h-3.993s-.012 0-.02-.008-.008-.016-.008-.02l.068-13.275c0-.015.013-.027.028-.027h3.992s.012 0 .02.008.008.016.008.02zm-5.307 6.423h-8.565c.002-.021.004-.04.004-.06v-4.193h8.583l-.022 4.253zm-21.85-.007a14.53 14.53 0 0 1 2.669-4.017.718.718 0 0 1 .522-.23h8.87v4.192a.06.06 0 0 1-.06.06l-12-.006z" fill="#3F2021"/></g><mask id="mask2_2858_2606" style="mask-type:luminance" maskUnits="userSpaceOnUse" x="0" y="0" width="81" height="95"><path d="M81 0H0v94.999h81V0z" fill="#fff"/></mask><g mask="url(#mask2_2858_2606)"><path d="M79.15 93.775H.613a.613.613 0 1 0 0 1.225H79.15a.613.613 0 1 0 0-1.225z" fill="#3F2021"/></g></g><defs><clipPath id="clip0_2858_2606"><path fill="#fff" d="M0 0h81v95H0z"/></clipPath></defs></svg>